<svg preserveAspectRatio="none" width="100%" height="100%" overflow="visible" style="display: block;" viewBox="0 0 33.75 28.75" fill="none" xmlns="http://www.w3.org/2000/svg">
<path id="Vector" d="M0.625 23.75H33.125C33.2908 23.75 33.4497 23.6842 33.5669 23.5669C33.6842 23.4497 33.75 23.2908 33.75 23.125C33.75 22.9592 33.6842 22.8003 33.5669 22.6831C33.4497 22.5658 33.2908 22.5 33.125 22.5H31.25V19.375C31.2456 15.6721 29.8142 12.1133 27.2534 9.43863C24.6925 6.76398 21.1993 5.17929 17.5 5.01406V1.25H20.625C20.7908 1.25 20.9497 1.18415 21.0669 1.06694C21.1842 0.949731 21.25 0.79076 21.25 0.625C21.25 0.45924 21.1842 0.300269 21.0669 0.183058C20.9497 0.0658481 20.7908 0 20.625 0H13.125C12.9592 0 12.8003 0.0658481 12.6831 0.183058C12.5658 0.300269 12.5 0.45924 12.5 0.625C12.5 0.79076 12.5658 0.949731 12.6831 1.06694C12.8003 1.18415 12.9592 1.25 13.125 1.25H16.25V5.01406C12.5507 5.17929 9.05751 6.76398 6.49665 9.43863C3.93578 12.1133 2.50435 15.6721 2.5 19.375V22.5H0.625C0.45924 22.5 0.300269 22.5658 0.183058 22.6831C0.0658481 22.8003 0 22.9592 0 23.125C0 23.2908 0.0658481 23.4497 0.183058 23.5669C0.300269 23.6842 0.45924 23.75 0.625 23.75ZM3.75 19.375C3.75 15.894 5.13281 12.5556 7.59422 10.0942C10.0556 7.63281 13.394 6.25 16.875 6.25C20.356 6.25 23.6944 7.63281 26.1558 10.0942C28.6172 12.5556 30 15.894 30 19.375V22.5H3.75V19.375ZM33.75 28.125C33.75 28.2908 33.6842 28.4497 33.5669 28.5669C33.4497 28.6842 33.2908 28.75 33.125 28.75H0.625C0.45924 28.75 0.300269 28.6842 0.183058 28.5669C0.0658481 28.4497 0 28.2908 0 28.125C0 27.9592 0.0658481 27.8003 0.183058 27.6831C0.300269 27.5658 0.45924 27.5 0.625 27.5H33.125C33.2908 27.5 33.4497 27.5658 33.5669 27.6831C33.6842 27.8003 33.75 27.9592 33.75 28.125Z" fill="var(--fill-0, white)"/>
</svg>
