<svg preserveAspectRatio="none" width="100%" height="100%" overflow="visible" style="display: block;" viewBox="0 0 25.0023 28" fill="none" xmlns="http://www.w3.org/2000/svg">
<path id="Vector" d="M12.4974 7C13.1896 7 13.8663 6.79473 14.4419 6.41015C15.0175 6.02556 15.4661 5.47894 15.731 4.83939C15.9959 4.19985 16.0652 3.49612 15.9302 2.81719C15.7951 2.13825 15.4618 1.51461 14.9723 1.02513C14.4828 0.535644 13.8592 0.202301 13.1802 0.0672531C12.5013 -0.0677952 11.7976 0.00151649 11.158 0.266423C10.5185 0.53133 9.97184 0.979934 9.58726 1.55551C9.20267 2.13108 8.9974 2.80777 8.9974 3.5C8.9974 4.42826 9.36615 5.3185 10.0225 5.97487C10.6789 6.63125 11.5691 7 12.4974 7ZM12.4974 1C12.9919 1 13.4752 1.14662 13.8863 1.42133C14.2975 1.69603 14.6179 2.08648 14.8071 2.54329C14.9963 3.00011 15.0458 3.50277 14.9494 3.98773C14.8529 4.47268 14.6148 4.91814 14.2652 5.26777C13.9155 5.6174 13.4701 5.8555 12.9851 5.95196C12.5002 6.04843 11.9975 5.99892 11.5407 5.8097C11.0839 5.62048 10.6934 5.30005 10.4187 4.88893C10.144 4.4778 9.9974 3.99445 9.9974 3.5C9.9974 2.83696 10.2608 2.20108 10.7296 1.73223C11.1985 1.26339 11.8344 1 12.4974 1ZM24.9474 9.57125C24.8563 9.12321 24.6116 8.72104 24.2556 8.43417C23.8996 8.1473 23.4546 7.99374 22.9974 8H1.9974C1.54192 8.00059 1.10028 8.15664 0.745532 8.44234C0.390786 8.72804 0.144186 9.12626 0.0465202 9.57116C-0.051146 10.016 0.00597246 10.4809 0.208428 10.889C0.410884 11.297 0.746548 11.6237 1.1599 11.815H1.1674L7.90365 14.7813L5.16365 25.1938C4.95455 25.6721 4.94078 26.2133 5.1253 26.7017C5.30981 27.19 5.67798 27.5869 6.15115 27.8075C6.4155 27.9335 6.70454 27.9993 6.9974 28C7.37413 28 7.74319 27.8935 8.06208 27.693C8.38097 27.4924 8.63673 27.2058 8.7999 26.8663L12.4974 20.5L16.1949 26.875C16.4249 27.3428 16.8284 27.7024 17.3196 27.8771C17.8107 28.0517 18.3507 28.0277 18.8244 27.8102C19.2982 27.5926 19.6682 27.1987 19.8558 26.7123C20.0434 26.226 20.0336 25.6856 19.8287 25.2063L17.0887 14.7938L23.8387 11.8238C24.2577 11.6372 24.5981 11.3097 24.8007 10.8982C25.0032 10.4866 25.0552 10.0171 24.9474 9.57125ZM23.4212 10.9038L16.2962 14.0425C16.1871 14.0904 16.0987 14.1756 16.047 14.2829C15.9952 14.3901 15.9834 14.5123 16.0137 14.6275L18.8724 25.4925C18.88 25.5212 18.89 25.5493 18.9024 25.5763C19.0144 25.8166 19.0264 26.0916 18.9357 26.3408C18.845 26.59 18.659 26.7929 18.4187 26.905C18.1783 27.017 17.9033 27.029 17.6541 26.9383C17.4049 26.8476 17.202 26.6616 17.0899 26.4213C17.084 26.408 17.0773 26.395 17.0699 26.3825L12.9299 19.25C12.886 19.1742 12.8229 19.1113 12.747 19.0676C12.6711 19.0239 12.585 19.0009 12.4974 19.0009C12.4098 19.0009 12.3237 19.0239 12.2478 19.0676C12.1719 19.1113 12.1089 19.1742 12.0649 19.25L7.9249 26.3825C7.91749 26.395 7.91081 26.408 7.9049 26.4213C7.85063 26.5422 7.77286 26.6511 7.67613 26.7416C7.5794 26.8322 7.46562 26.9027 7.34142 26.9489C7.21722 26.9951 7.08506 27.0162 6.95264 27.0109C6.82022 27.0056 6.69018 26.9741 6.57006 26.9181C6.44995 26.8621 6.34216 26.7827 6.25297 26.6847C6.16378 26.5867 6.09496 26.4719 6.05052 26.3471C6.00607 26.2222 5.98689 26.0898 5.99408 25.9575C6.00127 25.8251 6.03469 25.6956 6.0924 25.5763C6.1048 25.5493 6.11484 25.5212 6.1224 25.4925L8.98115 14.625C9.01145 14.5098 8.99964 14.3876 8.94785 14.2804C8.89606 14.1731 8.8077 14.0879 8.69865 14.04L1.57365 10.9038C1.36874 10.8067 1.2029 10.6429 1.10331 10.4392C1.00373 10.2355 0.97632 10.004 1.02558 9.78272C1.07484 9.56141 1.19785 9.36341 1.37443 9.22119C1.55101 9.07897 1.77067 9.00097 1.9974 9H22.9974C23.2243 9.00041 23.4444 9.078 23.6214 9.22002C23.7984 9.36205 23.9218 9.56005 23.9714 9.78151C24.021 10.003 23.9938 10.2347 23.8943 10.4386C23.7947 10.6426 23.6288 10.8066 23.4237 10.9038H23.4212Z" fill="var(--fill-0, #3A3A3A)"/>
</svg>
