<svg preserveAspectRatio="none" width="100%" height="100%" overflow="visible" style="display: block;" viewBox="0 0 22 24.0007" fill="none" xmlns="http://www.w3.org/2000/svg">
<path id="Vector" d="M5 6.50066V0.50066C5 0.368052 5.05268 0.240875 5.14645 0.147107C5.24021 0.0533384 5.36739 0.000659859 5.5 0.000659859C5.63261 0.000659859 5.75979 0.0533384 5.85355 0.147107C5.94732 0.240875 6 0.368052 6 0.50066V6.50066C6 6.63327 5.94732 6.76045 5.85355 6.85421C5.75979 6.94798 5.63261 7.00066 5.5 7.00066C5.36739 7.00066 5.24021 6.94798 5.14645 6.85421C5.05268 6.76045 5 6.63327 5 6.50066ZM22 0.50066V23.5007C22 23.6333 21.9473 23.7604 21.8536 23.8542C21.7598 23.948 21.6326 24.0007 21.5 24.0007C21.3674 24.0007 21.2402 23.948 21.1464 23.8542C21.0527 23.7604 21 23.6333 21 23.5007V17.0007H14.5C14.3674 17.0007 14.2402 16.948 14.1464 16.8542C14.0527 16.7604 14 16.6333 14 16.5007C14.046 14.1448 14.344 11.8006 14.8888 9.50816C16.0725 4.60566 18.29 1.33191 21.3025 0.0406598C21.3786 0.00793522 21.4617 -0.00536461 21.5442 0.0019559C21.6267 0.00927641 21.7061 0.0369877 21.7753 0.0825991C21.8444 0.12821 21.9012 0.190293 21.9404 0.263265C21.9796 0.336237 22.0001 0.417813 22 0.50066ZM21 1.30816C15.7812 4.29191 15.1013 13.7194 15.0125 16.0007H21V1.30816ZM10 0.41816C9.97812 0.287209 9.90512 0.170314 9.79705 0.0931896C9.68898 0.0160653 9.5547 -0.0149706 9.42375 0.00690976C9.2928 0.0287901 9.1759 0.101794 9.09878 0.209862C9.02166 0.31793 8.99062 0.452209 9.0125 0.58316L10.0125 6.54066C10.0125 7.73413 9.53839 8.87873 8.69448 9.72264C7.85057 10.5666 6.70597 11.0407 5.5125 11.0407C4.31903 11.0407 3.17443 10.5666 2.33052 9.72264C1.48661 8.87873 1.0125 7.73413 1.0125 6.54066L2.0125 0.58316C2.02333 0.51832 2.02129 0.45198 2.00649 0.38793C1.99168 0.323879 1.96441 0.263372 1.92622 0.209862C1.88803 0.156352 1.83968 0.110889 1.78392 0.0760659C1.72816 0.0412433 1.66609 0.0177438 1.60125 0.00690976C1.53641 -0.00392429 1.47007 -0.00188074 1.40602 0.0129232C1.34197 0.0277271 1.28146 0.0550015 1.22795 0.0931896C1.17444 0.131378 1.12898 0.179731 1.09416 0.23549C1.05933 0.291248 1.03583 0.35332 1.025 0.41816L0.0250001 6.41816C0.0147356 6.44504 0.00638137 6.47261 0 6.50066C0.00194692 7.87213 0.515528 9.19354 1.44027 10.2064C2.365 11.2192 3.63436 11.8505 5 11.9769V23.5007C5 23.6333 5.05268 23.7604 5.14645 23.8542C5.24021 23.948 5.36739 24.0007 5.5 24.0007C5.63261 24.0007 5.75979 23.948 5.85355 23.8542C5.94732 23.7604 6 23.6333 6 23.5007V11.9769C7.36564 11.8505 8.635 11.2192 9.55973 10.2064C10.4845 9.19354 10.9981 7.87213 11 6.50066C11.0019 6.47319 11.0019 6.44563 11 6.41816L10 0.41816Z" fill="var(--fill-0, #3A3A3A)"/>
</svg>
