<svg preserveAspectRatio="none" width="100%" height="100%" overflow="visible" style="display: block;" viewBox="0 0 27.1875 22.0513" fill="none" xmlns="http://www.w3.org/2000/svg">
<path id="Vector" d="M20.2945 0L27.1875 6.72198L13.5937 22.0513L0 6.72198L6.89298 0H20.2945ZM13.5937 20.4049L17.72 7.07543H9.46745L13.5937 20.4049ZM12.8114 20.1538L8.76284 7.0754H1.21379L12.8114 20.1538ZM14.3761 20.1538L25.9737 7.0754H18.4247L14.3761 20.1538ZM9.70147 6.40216H17.4858L13.5938 0.917598L9.70147 6.40216ZM18.6324 6.40216H25.8946L20.3168 0.961022L18.6324 6.40216ZM1.29235 6.40216H8.55461L6.87019 0.961022L1.29235 6.40216ZM9.14235 6.02477L12.9411 0.673177H7.4855L9.14235 6.02477ZM18.0443 6.02477L19.7011 0.673177H14.2455L18.0443 6.02477Z" fill="var(--fill-0, white)"/>
</svg>
