<svg preserveAspectRatio="none" width="100%" height="100%" overflow="visible" style="display: block;" viewBox="0 0 22.5 22.5" fill="none" xmlns="http://www.w3.org/2000/svg">
<path id="Union" d="M22.2825 0.217609C22.5725 0.507764 22.5726 0.978214 22.2825 1.26832L12.3007 11.25L22.2825 21.2317C22.5725 21.5219 22.5726 21.9924 22.2825 22.2825C21.9924 22.5726 21.5219 22.5725 21.2317 22.2825L11.25 12.3007L1.26832 22.2825C0.978214 22.5726 0.507764 22.5725 0.217608 22.2825C-0.0725363 21.9923 -0.072536 21.5219 0.217608 21.2317L10.1993 11.25L0.217608 1.26832C-0.0725354 0.978172 -0.0725344 0.507753 0.217608 0.217609C0.507753 -0.0725362 0.978171 -0.072536 1.26832 0.217609L11.25 10.1993L21.2317 0.217609C21.5219 -0.0725362 21.9923 -0.0725362 22.2825 0.217609Z" fill="var(--fill-0, white)"/>
</svg>
