<svg preserveAspectRatio="none" width="100%" height="100%" overflow="visible" style="display: block;" viewBox="0 0 281.519 23.9966" fill="none" xmlns="http://www.w3.org/2000/svg">
<g id="Layer 1">
<g id="Union">
<path d="M80.4712 0.47393C80.6641 0.47393 80.9441 0.482178 81.2245 0.490439C81.5065 0.498745 81.7895 0.506947 81.9927 0.506949H81.9957L81.9982 0.507273C82.6613 0.536963 83.3252 0.537055 83.8626 0.537055H86.4931L86.5304 0.59047L99.1028 18.7277V3.16406C99.1028 2.62106 99.0212 2.2256 98.8794 1.93392C98.7389 1.64509 98.5359 1.45051 98.2782 1.31334C98.0175 1.17454 97.698 1.09308 97.3249 1.03688C96.9512 0.98061 96.5352 0.951031 96.0802 0.910955L95.9669 0.900919V0.47393H96.0912C96.2824 0.473931 96.5615 0.482179 96.8416 0.490439C97.1231 0.498745 97.4062 0.506948 97.6094 0.506949H97.6123L97.6153 0.507273C98.2442 0.536906 98.9397 0.537055 99.477 0.537055C99.9518 0.537055 100.707 0.536898 101.306 0.507273L101.309 0.506949H101.312C101.61 0.506948 101.869 0.498724 102.119 0.490439C102.367 0.482169 102.607 0.473932 102.863 0.47393H102.988V0.900919L102.874 0.910955C102.42 0.951034 102.003 0.980589 101.627 1.03688C101.251 1.0931 100.927 1.17459 100.662 1.31367C100.4 1.45113 100.194 1.64584 100.05 1.93456C99.9057 2.22606 99.8221 2.62134 99.8221 3.16406V23.9966H98.8749L98.8376 23.9444C95.5752 19.3824 92.5639 14.9785 89.3658 10.3886L84.2089 3.01806V20.647C84.209 21.19 84.2904 21.5896 84.433 21.8865C84.5743 22.1808 84.7787 22.3809 85.038 22.5217C85.3002 22.664 85.622 22.7473 85.9982 22.8004C86.3745 22.8536 86.7961 22.8754 87.2568 22.8995L87.3746 22.9056V23.3368H87.2503C86.7143 23.3368 86.3642 23.3365 85.6987 23.3035L81.9927 23.3038C81.3892 23.3368 80.9437 23.3368 80.4712 23.3368H80.3469V22.9059L80.4644 22.8995C80.9089 22.8754 81.3227 22.8515 81.6959 22.7959C82.0689 22.7402 82.3931 22.6538 82.6599 22.5091C82.9242 22.3657 83.1346 22.164 83.2805 21.871C83.4275 21.5758 83.5126 21.1807 83.5126 20.647V3.16406C83.5126 2.62947 83.4275 2.23382 83.2805 1.93845C83.1346 1.64538 82.9241 1.44355 82.6599 1.30039C82.3932 1.15589 82.0689 1.06993 81.6959 1.01455C81.3227 0.959147 80.9089 0.935371 80.4644 0.911278L80.3469 0.904804V0.47393H80.4712Z" fill="var(--fill-0, white)"/>
<path d="M220.01 0.47393C220.202 0.473933 220.482 0.482179 220.763 0.490439C221.045 0.498744 221.328 0.506948 221.531 0.506949H221.534L221.537 0.507273C222.2 0.536959 222.864 0.537055 223.401 0.537055H226.031L226.069 0.59047L238.638 18.728V3.16406C238.638 2.62108 238.556 2.2256 238.414 1.93392C238.274 1.6451 238.071 1.45051 237.813 1.31334C237.552 1.17452 237.233 1.09308 236.86 1.03688C236.486 0.980622 236.07 0.951023 235.615 0.910955L235.502 0.900919V0.47393H235.626C235.817 0.473937 236.097 0.482181 236.377 0.490439C236.658 0.498744 236.941 0.506949 237.144 0.506949H237.147L237.15 0.507273C237.779 0.536899 238.475 0.537055 239.012 0.537055C239.487 0.537055 240.242 0.536895 240.841 0.507273L240.844 0.506949H240.847C241.145 0.506945 241.404 0.498722 241.654 0.490439C241.902 0.482171 242.143 0.47393 242.398 0.47393H242.523V0.900919L242.409 0.910955C241.955 0.951028 241.538 0.980609 241.162 1.03688C240.786 1.09308 240.462 1.17465 240.197 1.31367C239.935 1.45113 239.728 1.64582 239.585 1.93456C239.44 2.22606 239.357 2.62134 239.357 3.16406V23.9966H238.41L238.372 23.9444C235.11 19.3824 232.102 14.9784 228.904 10.3886L223.747 3.01806V20.647C223.747 21.19 223.829 21.5896 223.971 21.8865C224.113 22.1808 224.317 22.3809 224.576 22.5217C224.839 22.664 225.16 22.7473 225.536 22.8004C225.913 22.8536 226.334 22.8754 226.795 22.8995L226.913 22.9056V23.3368H226.789C226.253 23.3368 225.903 23.3365 225.237 23.3035L221.531 23.3038C220.928 23.3368 220.482 23.3368 220.01 23.3368H219.885V22.9059L220.003 22.8995C220.447 22.8754 220.861 22.8515 221.234 22.7959C221.607 22.7402 221.931 22.6538 222.198 22.5091C222.462 22.3657 222.673 22.1639 222.819 21.871C222.966 21.5758 223.051 21.1806 223.051 20.647V3.16406C223.051 2.62947 222.966 2.23382 222.819 1.93845C222.673 1.64537 222.462 1.44356 222.198 1.30039C221.931 1.15588 221.607 1.06994 221.234 1.01455C220.861 0.959146 220.447 0.93537 220.003 0.911278L219.885 0.904804V0.47393H220.01Z" fill="var(--fill-0, white)"/>
<path d="M129.141 0.143733L135.695 17.5872L140.087 2.99249L140.113 2.90476C140.226 2.35501 140.185 1.96657 140.053 1.69015C139.912 1.39586 139.658 1.20724 139.32 1.08609C138.98 0.964046 138.564 0.91427 138.12 0.894121C137.673 0.873856 137.219 0.883789 136.783 0.875345L136.661 0.872756V0.437673H136.785C137.04 0.437674 137.399 0.445911 137.766 0.454182C138.134 0.462477 138.512 0.471015 138.811 0.471016H138.815C139.668 0.504057 140.425 0.504036 141.154 0.504036C141.566 0.504036 142.322 0.503939 142.921 0.471016H142.928C143.162 0.471015 143.405 0.462806 143.651 0.454506C143.896 0.446234 144.144 0.437673 144.383 0.437673H144.507V0.492705C144.802 0.49845 145.081 0.504036 145.301 0.504036H145.305L145.967 0.521193C146.623 0.533744 147.257 0.533818 147.804 0.533818H149.64C152.64 0.533817 156.419 0.437881 159.679 0.471016H160.31V0.693737L160.181 7.65765H159.757L159.746 7.545C159.526 5.18268 159.242 3.57515 158.7 2.53895C158.431 2.02488 158.101 1.65564 157.687 1.40431C157.272 1.15304 156.764 1.01406 156.131 0.974728C155.151 0.97476 153.848 0.990397 152.59 1.00613C151.395 1.02107 150.242 1.03572 149.45 1.03721V12.2587H152.143C154 12.2587 154.89 11.8885 155.417 11.295C155.683 10.9947 155.865 10.6285 156.028 10.2005C156.11 9.98656 156.186 9.75918 156.266 9.51809C156.345 9.27773 156.429 9.0239 156.525 8.76057L156.554 8.67867H156.937L156.924 8.81399C156.703 11.2761 156.703 13.7716 156.924 16.2337L156.937 16.3693H156.554L156.525 16.2874C156.429 16.024 156.345 15.7696 156.265 15.5283C156.184 15.2864 156.108 15.0579 156.026 14.8427C155.863 14.4119 155.681 14.0424 155.414 13.7401C154.888 13.1429 153.999 12.7725 152.144 12.789H149.45V22.7376C150.289 22.739 151.499 22.7537 152.757 22.7687C153.868 22.7819 155.018 22.7946 155.985 22.7985L155.982 22.7969H156.509C157.789 22.7968 158.689 21.9794 159.328 20.7681C159.967 19.5558 160.328 17.9733 160.533 16.5063L160.548 16.3991H160.984L160.968 16.537C160.858 17.5461 160.811 18.6508 160.772 19.7869C160.732 20.9216 160.7 22.0885 160.621 23.2151L160.613 23.3307H157.901C156.651 23.3307 155.09 23.3147 153.59 23.2989C152.089 23.2832 150.649 23.2675 149.637 23.2675H147.801C147.438 23.2675 147.035 23.2758 146.611 23.2841C146.19 23.2923 145.747 23.3002 145.303 23.3002L145.303 23.3006C144.541 23.3338 143.746 23.3339 143.113 23.3339H142.989V23.0413L143.093 23.0238L144.233 22.8351L144.244 22.8334H144.276C144.97 22.7258 145.433 22.5126 145.725 22.1737C146.018 21.8336 146.158 21.3452 146.158 20.647V3.16439C146.158 2.46573 146.026 1.94624 145.732 1.59077C145.441 1.23873 144.973 1.02455 144.25 0.977642L143.319 0.925199C142.669 0.958446 142.187 1.02754 141.794 1.27773C141.404 1.52612 141.083 1.9665 140.796 2.79016C139.766 6.28953 138.721 9.62329 137.676 12.9635C136.631 16.3045 135.586 19.6524 134.557 23.1814L134.532 23.2708H134.034L127.292 5.45246L121.855 23.7852L121.828 23.8742H121.3L121.27 23.792L113.767 2.95882C113.41 2.13427 113.013 1.63739 112.505 1.33503C111.994 1.03062 111.354 0.913088 110.49 0.88182L110.37 0.877611V0.444471H110.495C110.735 0.444472 111.077 0.452711 111.421 0.460981C111.766 0.469279 112.112 0.477488 112.364 0.47749H112.369C113.158 0.510511 113.978 0.51051 114.612 0.51051C115.342 0.51051 116.543 0.510542 117.458 0.47749H117.462L118.11 0.472311C118.327 0.46921 118.545 0.465125 118.759 0.460981C119.186 0.452703 119.599 0.444471 119.965 0.444471H120.09V0.845887L119.972 0.852037L118.705 0.914839H118.704C117.978 0.945567 117.554 1.16059 117.348 1.49754C117.139 1.84004 117.128 2.35058 117.33 3.03522L122.621 19.2149L128.273 0.15215L128.299 0.0631259H129.111L129.141 0.143733Z" fill="var(--fill-0, white)"/>
<path d="M266.887 6.74087C266.887 3.20372 270.096 -0.00730138 275.003 0.345088L275.003 0.345412C277.209 0.489516 278.912 1.29844 279.808 2.50917C280.71 3.72822 280.774 5.32795 279.754 6.99467C279.498 7.41197 279.285 7.67751 279.101 7.83958C278.917 8.00292 278.755 8.06844 278.604 8.06846C278.423 8.06845 278.328 7.97056 278.264 7.90627C278.062 7.73487 277.952 7.44982 277.93 7.18664C277.909 6.92469 277.971 6.62905 278.185 6.47995L278.187 6.47866C278.299 6.40313 278.439 6.35479 278.576 6.32133C278.715 6.2876 278.862 6.26684 278.993 6.25076C279.129 6.23423 279.242 6.22314 279.33 6.20802C279.37 6.20118 279.398 6.19391 279.417 6.18763C279.739 5.28569 279.788 4.51023 279.637 3.85553C279.484 3.19335 279.126 2.64551 278.627 2.20941C277.624 1.334 276.052 0.910268 274.456 0.941385H274.455C271.382 0.972993 269.606 2.65323 269.486 4.59815V4.80177C269.486 6.09374 270.206 7.10698 271.32 8.00889C272.437 8.91281 273.929 9.68736 275.438 10.5077C276.941 11.3244 278.459 12.1856 279.6 13.2577C280.745 14.3332 281.519 15.6291 281.519 17.3123C281.519 20.7627 278.268 23.5176 273.577 23.7081H273.576C271.053 23.7883 268.648 23.0872 267.222 21.7302C266.507 21.0497 266.038 20.2031 265.93 19.2107C265.821 18.2191 266.074 17.0942 266.781 15.8582L266.781 15.8579C267.022 15.4409 267.235 15.1679 267.422 14.9977C267.608 14.8281 267.779 14.7514 267.933 14.7514C268.027 14.7514 268.105 14.786 268.161 14.8184C268.19 14.8346 268.215 14.8519 268.234 14.865L268.276 14.8916L268.287 14.8977L268.297 14.9055C268.505 15.0759 268.618 15.3659 268.64 15.6332C268.662 15.8952 268.599 16.1911 268.386 16.3402C268.153 16.5017 267.832 16.5596 267.587 16.5914C267.455 16.6086 267.357 16.617 267.273 16.6293C267.243 16.6338 267.221 16.6384 267.206 16.6422C267.089 16.8481 267.003 17.0836 266.909 17.3302C266.538 18.2945 266.548 19.1415 266.825 19.8665C267.102 20.5936 267.652 21.2104 268.381 21.7027C269.842 22.689 271.998 23.1603 274.004 23.0193L274.005 23.0189C275.491 22.9255 276.666 22.512 277.476 21.8448C278.282 21.18 278.734 20.2562 278.765 19.1187C278.802 17.6411 278.106 16.5584 277.019 15.6542C275.927 14.7455 274.452 14.0279 272.953 13.2814C271.462 12.5385 269.947 11.7678 268.807 10.7554C267.662 9.73839 266.887 8.4713 266.887 6.74087Z" fill="var(--fill-0, white)"/>
<path d="M254.189 0.0595649C255.642 0.0595688 257.198 0.267431 258.605 0.650682C260.011 1.03347 261.28 1.59403 262.154 2.30523L262.2 2.34246V2.4017C262.2 2.98988 262.176 4.4003 262.152 5.80823C262.128 7.21771 262.104 8.62514 262.104 9.21055V9.33486H261.681L261.667 9.22544C261.415 7.1794 260.786 5.08672 259.67 3.47775C258.555 1.87241 256.957 0.749551 254.753 0.626079H254.752C252.237 0.470228 250.121 1.70181 248.628 3.76878C247.134 5.83791 246.268 8.74072 246.268 11.902C246.268 15.0627 247.134 17.8391 248.557 19.8218C249.98 21.8037 251.957 22.9888 254.189 22.9888C255.797 22.9888 257.77 22.7143 259.511 22.2261V15.4788C259.511 14.9663 259.433 14.656 259.287 14.4451C259.144 14.2374 258.922 14.1065 258.586 13.9842C256.191 13.5337 254.091 12.3227 252.857 11.5948C252.201 11.2118 251.92 10.8905 251.839 10.6217C251.752 10.3363 251.899 10.1481 251.977 10.0707L251.977 10.0697C252.163 9.88802 252.451 9.7823 252.731 9.78224C252.989 9.78224 253.274 9.8447 253.407 10.0636L253.433 10.1082C253.555 10.3359 253.591 10.6251 253.609 10.8509C253.62 10.9798 253.624 11.0789 253.632 11.1626C253.635 11.1948 253.639 11.2188 253.643 11.2358C256.153 12.8017 258.061 13.485 260.968 13.485C262.392 13.485 263.308 13.4554 264.957 13.4222L265.084 13.4196V13.8149L264.976 13.8288C264.668 13.8684 264.331 13.8877 264.035 13.9191C263.73 13.9514 263.449 13.9977 263.21 14.0903C262.973 14.1821 262.78 14.3178 262.644 14.529C262.508 14.7416 262.422 15.043 262.422 15.4788V21.6667L262.355 21.7017C260.402 22.727 256.897 23.5226 254.189 23.5226C247.63 23.5226 242.602 18.4941 242.602 11.902C242.602 5.31309 247.627 0.0596297 254.189 0.0595649Z" fill="var(--fill-0, white)"/>
<path fill-rule="evenodd" clip-rule="evenodd" d="M20.546 21.0695L20.6043 21.2025C20.8988 21.8504 21.2395 22.2277 21.6396 22.4582C22.0687 22.7055 22.581 22.7929 23.2174 22.8425C24.0001 22.8057 24.6372 22.7288 25.0814 22.432C25.5122 22.1441 25.7867 21.6297 25.7868 20.6441L25.7537 11.8728V3.16406C25.7537 2.46106 25.6434 1.9507 25.3624 1.60048C25.0844 1.25424 24.6179 1.03929 23.8425 0.977642L22.5877 0.908365V0.47749H22.712C23.0136 0.47749 23.4113 0.485724 23.8069 0.494C24.2035 0.502298 24.5984 0.51051 24.8968 0.51051H24.9007L25.5624 0.527667C26.2188 0.540224 26.8524 0.540293 27.3995 0.540293C28.0334 0.540293 29.1381 0.540237 29.9275 0.51051H29.932C30.2951 0.51051 30.6734 0.502292 31.0453 0.494C31.4165 0.485723 31.7818 0.477492 32.1165 0.47749H32.2408V0.908365L32.1233 0.914839L30.9553 0.977318C30.1142 1.03929 29.6601 1.25493 29.4069 1.59563C29.1484 1.94359 29.0751 2.45182 29.0751 3.16406V22.8331H35.0549C35.9154 22.8005 36.9505 22.4851 37.8733 21.468C38.855 20.3859 39.7203 18.4985 40.0982 15.2823L40.1112 15.1722H40.5491L40.5339 15.3101C40.4387 16.1904 40.3756 19.57 40.3756 23.2459V23.3705L29.2619 23.3371H29.258L27.4222 23.274C27.06 23.2741 26.6583 23.2823 26.2354 23.2905C25.8133 23.2988 25.3707 23.3066 24.9286 23.3067L24.9289 23.307C24.6831 23.3185 24.4375 23.3244 24.1924 23.3281V23.3404H13.8398V22.9202L13.9456 22.904C14.1661 22.8707 14.4674 22.8561 14.7844 22.8344C15.1059 22.8124 15.4508 22.783 15.7734 22.7211C16.0972 22.659 16.3885 22.5657 16.6076 22.4223C16.8154 22.2863 16.9557 22.107 17.0019 21.8613C15.3191 16.3288 10.7371 14.1598 7.14164 13.5381L6.25821 16.067C6.15468 16.37 5.99779 16.7855 5.82183 17.2544C5.64532 17.7248 5.44878 18.2508 5.26535 18.7775C5.08185 19.3045 4.91215 19.8305 4.78818 20.3006C4.66358 20.7731 4.5878 21.1802 4.5878 21.4725C4.58783 21.8494 4.7235 22.11 4.93839 22.2986C5.15839 22.4918 5.46975 22.6164 5.82895 22.6975C6.18686 22.7782 6.58046 22.8132 6.95615 22.8357C7.32666 22.8579 7.68808 22.8684 7.96196 22.9004L8.0717 22.9131V23.3371H4.86058e-06V22.916L0.106833 22.9008C0.357547 22.865 0.594739 22.8357 0.818051 22.8079C1.04188 22.78 1.25145 22.7537 1.44899 22.7237C1.84459 22.6635 2.18483 22.5894 2.48328 22.4631C3.06811 22.2156 3.51553 21.7579 3.87205 20.7354L3.87237 20.7347L6.45017 13.4361C5.45916 13.3021 4.55847 13.303 3.87593 13.3594C3.86579 13.3737 3.85282 13.3955 3.83644 13.4267C3.79785 13.5002 3.75775 13.5912 3.7008 13.7071C3.59359 13.9252 3.44055 14.2025 3.21036 14.3807C3.10797 14.4603 2.97805 14.4847 2.85232 14.4788C2.72554 14.4729 2.59137 14.4359 2.4658 14.3794C2.21946 14.2687 1.97406 14.0674 1.87824 13.821L1.86367 13.7809C1.82752 13.6737 1.78968 13.4767 1.95237 13.2733C2.11466 13.0704 2.46008 12.8857 3.13396 12.7589L3.27316 12.7343C3.787 12.6371 4.39686 12.5734 5.00378 12.5734C5.55175 12.5734 6.12904 12.6307 6.72566 12.6902L11.1917 0.0828729L11.2209 0H11.8363L20.546 21.0695ZM7.38606 12.7893C10.4353 13.3202 13.8233 14.8924 15.843 18.0342C15.4844 17.1698 15.1408 16.3892 14.9919 16.0045L10.3323 4.18994L7.38606 12.7893Z" fill="var(--fill-0, white)"/>
<path d="M41.6802 0.47749C41.9818 0.477493 42.3795 0.485724 42.7751 0.494C43.1716 0.502296 43.5663 0.510509 43.8647 0.51051H43.8689C44.7548 0.540258 45.6379 0.540616 46.3674 0.540616C47.0013 0.540616 48.106 0.540557 48.8954 0.510834L48.9002 0.51051C49.2632 0.510507 49.6414 0.50229 50.0132 0.494C50.3844 0.485723 50.7499 0.47749 51.0847 0.47749H51.209V0.908689L51.0915 0.914839L49.9212 0.977965L49.9209 0.977642C49.0814 1.03985 48.628 1.25557 48.3751 1.59595C48.1166 1.94392 48.0433 2.45218 48.0433 3.16439V22.8334H53.8208L53.8244 22.8299H53.8758C54.7647 22.8298 55.8695 22.5399 56.8479 21.4615C57.8297 20.3794 58.695 18.492 59.0729 15.2758L59.0858 15.1657H59.5238L59.5089 15.3037C59.4137 16.184 59.3503 19.5637 59.3503 23.2394V23.364L48.2369 23.3307H48.233L46.3972 23.2675C46.035 23.2676 45.633 23.2758 45.2101 23.2841C44.7879 23.2923 44.3451 23.3002 43.9029 23.3002L43.9032 23.3006C43.1411 23.3338 42.346 23.3339 41.7133 23.3339H41.5889V22.8674L41.709 22.8632C42.161 22.8474 42.5783 22.8318 42.9528 22.7833C43.3272 22.7347 43.65 22.6543 43.9142 22.5139C44.1756 22.375 44.3828 22.1756 44.5264 21.882C44.6712 21.5858 44.7549 21.1866 44.755 20.6441L44.7216 11.8728V3.16439C44.7216 2.4615 44.6115 1.95102 44.3306 1.60081C44.053 1.25494 43.5873 1.03961 42.8136 0.977642L41.5559 0.908365V0.47749H41.6802Z" fill="var(--fill-0, white)"/>
<path d="M70.2824 0.479109L71.4459 0.50177C71.6314 0.504867 71.8051 0.506948 71.9551 0.506949H71.9593C72.8452 0.5367 73.7283 0.537055 74.4578 0.537055H74.5821V0.539969C75.2285 0.539858 76.2456 0.538372 76.9857 0.51051L76.9906 0.510186C77.3535 0.510185 77.7317 0.50229 78.1035 0.494C78.4748 0.485723 78.8403 0.477169 79.1751 0.477167H79.2994V0.908365L79.1819 0.914516L78.0116 0.977642L78.0113 0.977318C77.1718 1.03954 76.7184 1.25528 76.4655 1.59563C76.207 1.94358 76.1337 2.45186 76.1337 3.16406V20.6435C76.1337 21.3711 76.2072 21.8787 76.4652 22.2226C76.7176 22.559 77.1705 22.7676 78.0113 22.8299L79.1819 22.893L79.2994 22.8991V23.3303H79.1751C78.8419 23.3303 78.4765 23.3221 78.1048 23.3138C77.7326 23.3055 77.3535 23.297 76.9906 23.297H76.9854C76.1963 23.264 75.0917 23.264 74.4578 23.264C73.7283 23.264 72.8422 23.264 71.9599 23.297L71.9551 23.2973C71.6567 23.2973 71.262 23.3055 70.8654 23.3138C70.4698 23.3221 70.0722 23.3303 69.7706 23.3303H69.6463V22.8995L70.904 22.8299C71.6775 22.7678 72.1428 22.5606 72.4203 22.219C72.7011 21.8733 72.812 21.3635 72.812 20.6435V3.16083C72.812 2.4579 72.702 1.94745 72.4209 1.59725C72.1433 1.25143 71.6777 1.03603 70.904 0.974081L69.6463 0.904804V0.47393H69.7706C69.9214 0.47393 70.0961 0.475993 70.2824 0.479109Z" fill="var(--fill-0, white)"/>
<path fill-rule="evenodd" clip-rule="evenodd" d="M172.821 0.467455C179.568 0.467455 184.727 5.42797 184.727 11.8991C184.727 18.3564 180.122 23.3303 174.121 23.3303C173.362 23.3303 172.505 23.3306 171.521 23.2973C171.031 23.2973 170.565 23.2891 170.131 23.2808C169.695 23.2725 169.293 23.264 168.93 23.264H167.093C166.73 23.264 166.32 23.2725 165.892 23.2808C165.466 23.2891 165.023 23.2969 164.596 23.297C163.834 23.3303 163.039 23.3303 162.406 23.3303H162.282V22.8995L163.537 22.8302L163.681 22.8169C164.385 22.7412 164.81 22.5323 165.067 22.209C165.344 21.8597 165.447 21.3499 165.447 20.6438V3.16083C165.447 2.46504 165.3 1.95285 164.999 1.60016C164.699 1.24949 164.229 1.03556 163.537 0.974081L162.282 0.905128V0.47393H162.406C162.676 0.47393 163.074 0.482489 163.477 0.490763C163.882 0.499058 164.292 0.507271 164.591 0.507273H164.595L164.917 0.516985C165.674 0.536913 166.455 0.537055 167.093 0.537055H168.93C169.408 0.537055 170.26 0.536915 170.856 0.507273H170.862C171.223 0.507273 171.562 0.49905 171.887 0.490763C172.14 0.484302 172.385 0.479057 172.624 0.476519L172.62 0.467455H172.821ZM172.828 1.00451C172.53 1.00451 172.223 1.01272 171.899 1.02102C171.576 1.02927 171.235 1.03713 170.871 1.03721C170.187 1.06829 169.313 1.07042 168.709 1.07055V22.7347C169.003 22.7365 169.48 22.7431 169.975 22.7502C170.549 22.7585 171.15 22.7667 171.529 22.7667H171.533C172.512 22.7998 173.365 22.8001 174.124 22.8001C176.196 22.8001 178.03 21.6268 179.351 19.672C180.673 17.7166 181.475 14.9864 181.475 11.9023C181.475 5.73421 177.674 1.00461 172.828 1.00451Z" fill="var(--fill-0, white)"/>
<path fill-rule="evenodd" clip-rule="evenodd" d="M196.195 0.467455C202.942 0.467455 208.1 5.42797 208.1 11.8991C208.1 18.3564 203.495 23.3303 197.494 23.3303C196.735 23.3303 195.878 23.3306 194.894 23.2973C194.404 23.2973 193.938 23.2891 193.504 23.2808C193.069 23.2725 192.666 23.264 192.303 23.264H190.467C190.104 23.264 189.693 23.2725 189.265 23.2808C188.839 23.2891 188.396 23.2969 187.969 23.297C187.207 23.3303 186.412 23.3303 185.779 23.3303H185.655V22.8995L186.91 22.8302L187.055 22.8169C187.759 22.7412 188.184 22.5323 188.44 22.209C188.718 21.8597 188.821 21.3499 188.821 20.6438V3.16083C188.821 2.46504 188.674 1.95285 188.372 1.60016C188.073 1.2495 187.603 1.03556 186.911 0.974081L185.655 0.905128V0.47393H185.779C186.05 0.47393 186.447 0.482489 186.851 0.490763C187.255 0.499058 187.665 0.50727 187.964 0.507273H187.968L188.291 0.516985C189.047 0.536912 189.828 0.537055 190.467 0.537055H192.303C192.781 0.537055 193.633 0.536913 194.23 0.507273H194.236C194.597 0.507273 194.936 0.49905 195.26 0.490763C195.513 0.484296 195.758 0.479052 195.998 0.476519L195.994 0.467455H196.195ZM196.202 1.00451C195.904 1.00451 195.597 1.01272 195.272 1.02102C194.949 1.02927 194.609 1.03713 194.244 1.03721C193.56 1.06828 192.686 1.07042 192.083 1.07055V22.7347C192.377 22.7365 192.853 22.7431 193.349 22.7502C193.923 22.7585 194.524 22.7667 194.902 22.7667H194.906C195.885 22.7998 196.738 22.8001 197.498 22.8001C199.569 22.8001 201.403 21.6268 202.725 19.672C204.046 17.7166 204.849 14.9864 204.849 11.9023C204.849 5.73421 201.047 1.0046 196.202 1.00451Z" fill="var(--fill-0, white)"/>
<path d="M209.821 0.479109L210.984 0.50177C211.17 0.504868 211.343 0.506949 211.493 0.506949H211.498C212.384 0.536702 213.267 0.537055 213.996 0.537055H214.12V0.539969C214.767 0.539858 215.784 0.538377 216.524 0.51051L216.529 0.510186C216.892 0.510185 217.27 0.502291 217.642 0.494C218.013 0.485722 218.379 0.477167 218.713 0.477167H218.838V0.908365L218.72 0.914516L217.55 0.977642L217.55 0.977318C216.71 1.03952 216.257 1.2553 216.004 1.59563C215.745 1.94358 215.672 2.45186 215.672 3.16406V20.6435C215.672 21.3712 215.745 21.8787 216.003 22.2226C216.256 22.559 216.709 22.7676 217.55 22.8299L218.72 22.893L218.838 22.8991V23.3303H218.713C218.38 23.3303 218.015 23.3221 217.643 23.3138C217.271 23.3055 216.892 23.297 216.529 23.297H216.524C215.735 23.264 214.63 23.264 213.996 23.264C213.267 23.264 212.38 23.264 211.498 23.297L211.493 23.2973C211.195 23.2973 210.8 23.3055 210.404 23.3138C210.008 23.3221 209.61 23.3303 209.309 23.3303H209.185V22.8995L210.442 22.8299C211.216 22.7678 211.681 22.5606 211.959 22.219C212.239 21.8733 212.35 21.3635 212.35 20.6435V3.16083C212.35 2.4579 212.24 1.94745 211.959 1.59725C211.682 1.25139 211.216 1.03603 210.442 0.974081L209.185 0.904804V0.47393H209.309C209.46 0.47393 209.634 0.475992 209.821 0.479109Z" fill="var(--fill-0, white)"/>
</g>
</g>
</svg>
