<svg preserveAspectRatio="none" width="100%" height="100%" overflow="visible" style="display: block;" viewBox="0 0 28.75 21.25" fill="none" xmlns="http://www.w3.org/2000/svg">
<path id="Vector" d="M28.75 10.625C28.75 10.7908 28.6842 10.9497 28.5669 11.0669C28.4497 11.1842 28.2908 11.25 28.125 11.25H0.625C0.45924 11.25 0.300269 11.1842 0.183058 11.0669C0.0658481 10.9497 0 10.7908 0 10.625C0 10.4592 0.0658481 10.3003 0.183058 10.1831C0.300269 10.0658 0.45924 10 0.625 10H28.125C28.2908 10 28.4497 10.0658 28.5669 10.1831C28.6842 10.3003 28.75 10.4592 28.75 10.625ZM0.625 1.25H28.125C28.2908 1.25 28.4497 1.18415 28.5669 1.06694C28.6842 0.949732 28.75 0.79076 28.75 0.625C28.75 0.45924 28.6842 0.300269 28.5669 0.183058C28.4497 0.0658481 28.2908 0 28.125 0H0.625C0.45924 0 0.300269 0.0658481 0.183058 0.183058C0.0658481 0.300269 0 0.45924 0 0.625C0 0.79076 0.0658481 0.949732 0.183058 1.06694C0.300269 1.18415 0.45924 1.25 0.625 1.25ZM28.125 20H0.625C0.45924 20 0.300269 20.0658 0.183058 20.1831C0.0658481 20.3003 0 20.4592 0 20.625C0 20.7908 0.0658481 20.9497 0.183058 21.0669C0.300269 21.1842 0.45924 21.25 0.625 21.25H28.125C28.2908 21.25 28.4497 21.1842 28.5669 21.0669C28.6842 20.9497 28.75 20.7908 28.75 20.625C28.75 20.4592 28.6842 20.3003 28.5669 20.1831C28.4497 20.0658 28.2908 20 28.125 20Z" fill="var(--fill-0, white)"/>
</svg>
