<svg preserveAspectRatio="none" width="100%" height="100%" overflow="visible" style="display: block;" viewBox="0 0 31.2477 31.25" fill="none" xmlns="http://www.w3.org/2000/svg">
<path id="Vector" d="M24.6576 18.8156L19.6576 16.3156C19.5592 16.2666 19.4496 16.2444 19.3398 16.2512C19.2301 16.2581 19.1241 16.2938 19.0326 16.3547L16.4326 18.0891C15.0034 17.4036 13.8508 16.2511 13.1654 14.8219L14.8998 12.2219C14.9607 12.1303 14.9964 12.0244 15.0032 11.9146C15.0101 11.8049 14.9879 11.6953 14.9388 11.5969L12.4388 6.59687C12.387 6.49251 12.307 6.40472 12.2079 6.34342C12.1087 6.28213 11.9944 6.24977 11.8779 6.25C10.3861 6.25 8.95532 6.84263 7.90043 7.89752C6.84554 8.95242 6.2529 10.3832 6.2529 11.875C6.25663 15.3548 7.64063 18.6911 10.1012 21.1517C12.5618 23.6123 15.8981 24.9963 19.3779 25C20.8697 25 22.3005 24.4074 23.3554 23.3525C24.4103 22.2976 25.0029 20.8668 25.0029 19.375C25.003 19.2589 24.9707 19.145 24.9097 19.0462C24.8487 18.9474 24.7614 18.8676 24.6576 18.8156ZM19.3779 23.75C16.2295 23.7467 13.2109 22.4945 10.9847 20.2682C8.75839 18.042 7.50621 15.0234 7.5029 11.875C7.50272 10.78 7.91315 9.72475 8.65314 8.91764C9.39313 8.11054 10.4089 7.61026 11.4998 7.51562L13.656 11.8297L11.9373 14.4141C11.88 14.4993 11.8446 14.5974 11.8342 14.6996C11.8239 14.8018 11.8389 14.905 11.8779 15C12.7083 16.9741 14.2788 18.5446 16.2529 19.375C16.348 19.4145 16.4514 19.4299 16.5539 19.4198C16.6564 19.4097 16.7548 19.3745 16.8404 19.3172L19.4248 17.5984L23.7388 19.7547C23.6438 20.8456 23.1432 21.8612 22.3358 22.6009C21.5284 23.3406 20.4729 23.7506 19.3779 23.75ZM15.6279 2.69947e-07C12.9077 -0.000505299 10.2345 0.709138 7.87277 2.05873C5.511 3.40833 3.54248 5.35112 2.16192 7.69493C0.781361 10.0387 0.0366035 12.7023 0.00131517 15.4223C-0.0339731 18.1422 0.64143 20.8243 1.96072 23.2031L0.101342 28.7797C-0.00883267 29.1101 -0.0248213 29.4646 0.0551674 29.8035C0.135156 30.1425 0.307961 30.4524 0.554214 30.6987C0.800468 30.9449 1.11044 31.1177 1.44938 31.1977C1.78832 31.2777 2.14285 31.2617 2.47322 31.1516L8.04978 29.2922C10.1358 30.448 12.4587 31.111 14.8406 31.2304C17.2224 31.3498 19.6 30.9223 21.7911 29.9809C23.9822 29.0394 25.9288 27.6088 27.4816 25.7988C29.0344 23.9888 30.1523 21.8473 30.7496 19.5385C31.3469 17.2296 31.4078 14.8147 30.9276 12.4787C30.4474 10.1427 29.4388 7.94767 27.9792 6.0617C26.5196 4.17572 24.6476 2.6489 22.5067 1.5982C20.3658 0.547494 18.0127 0.000800054 15.6279 2.69947e-07ZM15.6279 30C13.1005 30.0008 10.6176 29.3352 8.42947 28.0703C8.33438 28.0156 8.22669 27.9865 8.11697 27.9859C8.04947 27.9859 7.98242 27.997 7.91853 28.0187L2.0779 29.9656C1.96778 30.0023 1.84961 30.0077 1.73663 29.981C1.62364 29.9544 1.52032 29.8967 1.43824 29.8147C1.35615 29.7326 1.29855 29.6293 1.27189 29.5163C1.24522 29.4033 1.25055 29.2851 1.28728 29.175L3.23415 23.3344C3.26224 23.2504 3.27216 23.1614 3.26327 23.0734C3.25438 22.9853 3.22688 22.9001 3.18259 22.8234C1.59775 20.084 0.961271 16.8981 1.37189 13.76C1.7825 10.6218 3.21726 7.70695 5.45358 5.46749C7.68991 3.22802 10.6028 1.78916 13.7403 1.37414C16.8778 0.95911 20.0646 1.59111 22.8063 3.1721C25.548 4.75309 27.6913 7.19468 28.9037 10.1181C30.1162 13.0415 30.3299 16.2833 29.5119 19.3406C28.6938 22.398 26.8897 25.0998 24.3793 27.0271C21.869 28.9545 18.7928 29.9994 15.6279 30Z" fill="var(--fill-0, #343330)"/>
</svg>
