<svg preserveAspectRatio="none" width="100%" height="100%" overflow="visible" style="display: block;" viewBox="0 0 28.75 31.25" fill="none" xmlns="http://www.w3.org/2000/svg">
<path id="Vector" d="M26.875 2.5H22.5V0.625C22.5 0.45924 22.4342 0.300269 22.3169 0.183058C22.1997 0.0658481 22.0408 0 21.875 0C21.7092 0 21.5503 0.0658481 21.4331 0.183058C21.3158 0.300269 21.25 0.45924 21.25 0.625V2.5H7.5V0.625C7.5 0.45924 7.43415 0.300269 7.31694 0.183058C7.19973 0.0658481 7.04076 0 6.875 0C6.70924 0 6.55027 0.0658481 6.43306 0.183058C6.31585 0.300269 6.25 0.45924 6.25 0.625V2.5H1.875C1.37772 2.5 0.900805 2.69754 0.549174 3.04917C0.197544 3.4008 0 3.87772 0 4.375V29.375C0 29.8723 0.197544 30.3492 0.549174 30.7008C0.900805 31.0525 1.37772 31.25 1.875 31.25H26.875C27.3723 31.25 27.8492 31.0525 28.2008 30.7008C28.5525 30.3492 28.75 29.8723 28.75 29.375V4.375C28.75 3.87772 28.5525 3.4008 28.2008 3.04917C27.8492 2.69754 27.3723 2.5 26.875 2.5ZM1.875 3.75H6.25V5.625C6.25 5.79076 6.31585 5.94973 6.43306 6.06694C6.55027 6.18415 6.70924 6.25 6.875 6.25C7.04076 6.25 7.19973 6.18415 7.31694 6.06694C7.43415 5.94973 7.5 5.79076 7.5 5.625V3.75H21.25V5.625C21.25 5.79076 21.3158 5.94973 21.4331 6.06694C21.5503 6.18415 21.7092 6.25 21.875 6.25C22.0408 6.25 22.1997 6.18415 22.3169 6.06694C22.4342 5.94973 22.5 5.79076 22.5 5.625V3.75H26.875C27.0408 3.75 27.1997 3.81585 27.3169 3.93306C27.4341 4.05027 27.5 4.20924 27.5 4.375V10H1.25V4.375C1.25 4.20924 1.31585 4.05027 1.43306 3.93306C1.55027 3.81585 1.70924 3.75 1.875 3.75ZM26.875 30H1.875C1.70924 30 1.55027 29.9341 1.43306 29.8169C1.31585 29.6997 1.25 29.5408 1.25 29.375V11.25H27.5V29.375C27.5 29.5408 27.4341 29.6997 27.3169 29.8169C27.1997 29.9341 27.0408 30 26.875 30Z" fill="var(--fill-0, #3A3A3A)"/>
</svg>
