<svg preserveAspectRatio="none" width="100%" height="100%" overflow="visible" style="display: block;" viewBox="0 0 9.62559 18.3755" fill="none" xmlns="http://www.w3.org/2000/svg">
<path id="Vector" d="M9.49728 9.49728L0.747275 18.2473C0.706627 18.2879 0.65837 18.3202 0.605261 18.3422C0.552151 18.3642 0.495229 18.3755 0.437744 18.3755C0.380258 18.3755 0.323336 18.3642 0.270226 18.3422C0.217117 18.3202 0.16886 18.2879 0.128212 18.2473C0.087564 18.2066 0.0553205 18.1584 0.0333219 18.1053C0.0113232 18.0522 0 17.9952 0 17.9377C0 17.8803 0.0113232 17.8233 0.0333219 17.7702C0.0553205 17.7171 0.087564 17.6689 0.128212 17.6282L8.56868 9.18774L0.128212 0.747275C0.0461194 0.665182 0 0.55384 0 0.437743C0 0.321647 0.0461194 0.210305 0.128212 0.128212C0.210305 0.046119 0.321647 0 0.437744 0C0.55384 0 0.665182 0.046119 0.747275 0.128212L9.49728 8.87821C9.53795 8.91884 9.57022 8.9671 9.59224 9.02021C9.61426 9.07332 9.62559 9.13025 9.62559 9.18774C9.62559 9.24524 9.61426 9.30217 9.59224 9.35528C9.57022 9.40839 9.53795 9.45664 9.49728 9.49728Z" fill="var(--fill-0, #3A3A3A)"/>
</svg>
