<svg preserveAspectRatio="none" width="100%" height="100%" overflow="visible" style="display: block;" viewBox="0 0 27.0008 23" fill="none" xmlns="http://www.w3.org/2000/svg">
<path id="Vector" d="M26.8541 0.85375C26.9241 0.783823 26.9718 0.694696 26.9912 0.597654C27.0105 0.500611 27.0006 0.400016 26.9627 0.308605C26.9248 0.217193 26.8607 0.139075 26.7784 0.08414C26.6961 0.0292046 26.5993 -7.77138e-05 26.5004 1.549e-07H0.500394C0.401446 -7.77138e-05 0.3047 0.0292046 0.222403 0.08414C0.140106 0.139075 0.0759587 0.217193 0.0380825 0.308605C0.000206247 0.400016 -0.00969606 0.500611 0.00962914 0.597654C0.0289543 0.694696 0.0766381 0.783823 0.146644 0.85375L13.0004 13.7075V22H8.50039C8.36779 22 8.24061 22.0527 8.14684 22.1464C8.05307 22.2402 8.00039 22.3674 8.00039 22.5C8.00039 22.6326 8.05307 22.7598 8.14684 22.8536C8.24061 22.9473 8.36779 23 8.50039 23H18.5004C18.633 23 18.7602 22.9473 18.8539 22.8536C18.9477 22.7598 19.0004 22.6326 19.0004 22.5C19.0004 22.3674 18.9477 22.2402 18.8539 22.1464C18.7602 22.0527 18.633 22 18.5004 22H14.0004V13.7075L26.8541 0.85375ZM1.70789 1H25.2929L22.2929 4H4.70789L1.70789 1ZM13.5004 12.7925L5.70789 5H21.2929L13.5004 12.7925Z" fill="var(--fill-0, #3A3A3A)"/>
</svg>
