<svg preserveAspectRatio="none" width="100%" height="100%" overflow="visible" style="display: block;" viewBox="0 0 849.25 72.3897" fill="none" xmlns="http://www.w3.org/2000/svg">
<g id="Layer 1">
<g id="Union">
<path d="M242.755 1.42969C243.337 1.42969 244.181 1.45457 245.027 1.47949C245.878 1.50455 246.732 1.52929 247.345 1.5293H247.354L247.361 1.53027C249.362 1.61984 251.364 1.62012 252.985 1.62012H260.921L261.033 1.78125L298.96 56.4951V9.54492C298.96 7.90688 298.714 6.7139 298.286 5.83398C297.862 4.9627 297.25 4.37569 296.473 3.96191C295.686 3.54321 294.722 3.29744 293.597 3.12793C292.469 2.95817 291.214 2.86894 289.842 2.74805L289.5 2.71777V1.42969H289.875C290.452 1.42969 291.294 1.45457 292.139 1.47949C292.988 1.50455 293.842 1.52929 294.455 1.5293H294.464L294.473 1.53027C296.37 1.61967 298.468 1.62012 300.089 1.62012C301.521 1.62012 303.799 1.61964 305.606 1.53027L305.615 1.5293H305.625C306.523 1.52929 307.305 1.50448 308.058 1.47949C308.809 1.45454 309.533 1.42969 310.305 1.42969H310.68V2.71777L310.338 2.74805C308.968 2.86895 307.709 2.95811 306.573 3.12793C305.439 3.29751 304.463 3.54336 303.664 3.96289C302.874 4.37757 302.25 4.96496 301.818 5.83594C301.382 6.7153 301.13 7.9077 301.13 9.54492V72.3896H298.272L298.16 72.2324C288.319 58.4701 279.234 45.1852 269.587 31.3389L254.03 9.10449V62.2852C254.03 63.923 254.276 65.1287 254.706 66.0244C255.132 66.912 255.749 67.5157 256.531 67.9404C257.322 68.3698 258.293 68.6209 259.428 68.7812C260.563 68.9416 261.835 69.0073 263.225 69.0801L263.58 69.0986V70.3994H263.205C261.588 70.3994 260.532 70.3984 258.524 70.2988L247.345 70.2998C245.524 70.3993 244.18 70.3994 242.755 70.3994H242.38V69.0996L242.734 69.0801C244.075 69.0074 245.324 68.9355 246.449 68.7676C247.575 68.5997 248.553 68.339 249.357 67.9023C250.155 67.4698 250.789 66.8613 251.23 65.9775C251.673 65.087 251.93 63.8951 251.93 62.2852V9.54492C251.93 7.93223 251.673 6.7387 251.23 5.84766C250.789 4.96357 250.154 4.35471 249.357 3.92285C248.553 3.48694 247.575 3.22763 246.449 3.06055C245.324 2.89343 244.075 2.8217 242.734 2.74902L242.38 2.72949V1.42969H242.755Z" fill="var(--fill-0, white)"/>
<path d="M663.695 1.42969C664.277 1.4297 665.122 1.45457 665.968 1.47949C666.818 1.50454 667.672 1.52929 668.285 1.5293H668.294L668.302 1.53027C670.302 1.61983 672.305 1.62012 673.926 1.62012H681.861L681.974 1.78125L719.891 56.4961V9.54492C719.891 7.90693 719.645 6.7139 719.217 5.83398C718.793 4.96272 718.181 4.37571 717.403 3.96191C716.617 3.54313 715.652 3.29746 714.526 3.12793C713.399 2.95821 712.145 2.86892 710.772 2.74805L710.431 2.71777V1.42969H710.806C711.383 1.42971 712.225 1.45458 713.069 1.47949C713.919 1.50454 714.773 1.5293 715.386 1.5293H715.395L715.403 1.53027C717.301 1.61965 719.399 1.62012 721.02 1.62012C722.452 1.62012 724.73 1.61963 726.537 1.53027L726.546 1.5293H726.556C727.454 1.52928 728.236 1.50448 728.988 1.47949C729.739 1.45455 730.463 1.42969 731.235 1.42969H731.61V2.71777L731.269 2.74805C729.899 2.86894 728.639 2.95817 727.504 3.12793C726.37 3.29747 725.394 3.54352 724.595 3.96289C723.805 4.37758 723.18 4.96489 722.748 5.83594C722.312 6.7153 722.061 7.9077 722.061 9.54492V72.3896H719.202L719.09 72.2324C709.248 58.4702 700.175 45.185 690.527 31.3389L674.971 9.10449V62.2852C674.971 63.9232 675.216 65.1287 675.646 66.0244C676.073 66.9121 676.689 67.5157 677.472 67.9404C678.263 68.3697 679.233 68.6209 680.368 68.7812C681.503 68.9416 682.776 69.0073 684.165 69.0801L684.521 69.0986V70.3994H684.146C682.529 70.3994 681.473 70.3983 679.466 70.2988L668.285 70.2998C666.465 70.3993 665.12 70.3994 663.695 70.3994H663.32V69.0996L663.675 69.0801C665.015 69.0074 666.264 68.9355 667.39 68.7676C668.515 68.5997 669.493 68.3389 670.298 67.9023C671.095 67.4698 671.73 66.8611 672.17 65.9775C672.613 65.087 672.87 63.8949 672.87 62.2852V9.54492C672.87 7.93223 672.613 6.7387 672.17 5.84766C671.73 4.96353 671.095 4.35474 670.298 3.92285C669.493 3.4869 668.515 3.22765 667.39 3.06055C666.264 2.89342 665.016 2.8217 663.675 2.74902L663.32 2.72949V1.42969H663.695Z" fill="var(--fill-0, white)"/>
<path d="M389.576 0.433594L409.346 53.0547L422.596 9.02734L422.675 8.7627C423.014 7.10428 422.891 5.93249 422.493 5.09863C422.069 4.21084 421.301 3.64184 420.282 3.27637C419.256 2.90821 418.002 2.75805 416.662 2.69727C415.314 2.63613 413.943 2.6661 412.628 2.64062L412.26 2.63281V1.32031H412.635C413.405 1.32032 414.486 1.34517 415.594 1.37012C416.705 1.39514 417.845 1.4209 418.745 1.4209H418.76C421.331 1.52057 423.615 1.52051 425.815 1.52051C427.058 1.52051 429.337 1.52022 431.145 1.4209H431.165C431.873 1.42089 432.607 1.39613 433.348 1.37109C434.086 1.34614 434.833 1.32031 435.556 1.32031H435.931V1.48633C436.819 1.50366 437.661 1.52051 438.325 1.52051H438.338L440.334 1.57227C442.314 1.61013 444.225 1.61035 445.875 1.61035H451.415C460.464 1.61035 471.863 1.32094 481.699 1.4209H483.601V2.09277L483.213 23.1006H481.934L481.901 22.7607C481.236 15.6344 480.379 10.785 478.745 7.65918C477.935 6.1084 476.939 4.99451 475.688 4.23633C474.438 3.47834 472.906 3.05907 470.996 2.94043C468.04 2.94053 464.107 2.9877 460.313 3.03516C456.709 3.08022 453.23 3.12443 450.84 3.12891V36.9805H458.965C464.566 36.9804 467.251 35.8637 468.841 34.0732C469.645 33.1673 470.193 32.0627 470.685 30.7715C470.93 30.1261 471.16 29.4402 471.401 28.7129C471.642 27.9878 471.894 27.2221 472.183 26.4277L472.272 26.1807H473.426L473.389 26.5889C472.721 34.0163 472.721 41.5442 473.389 48.9717L473.426 49.3809H472.272L472.183 49.1338C471.893 48.3392 471.64 47.5715 471.398 46.8438C471.156 46.1139 470.925 45.4247 470.679 44.7754C470.185 43.4759 469.637 42.3614 468.833 41.4492C467.244 39.6476 464.564 38.5305 458.969 38.5801H450.84V68.5918C453.371 68.596 457.021 68.6403 460.816 68.6855C464.169 68.7255 467.637 68.7637 470.556 68.7754L470.546 68.7705H472.135C475.997 68.7704 478.713 66.3044 480.639 62.6504C482.566 58.9933 483.655 54.2193 484.273 49.7939L484.319 49.4707H485.634L485.588 49.8867C485.255 52.9309 485.113 56.2631 484.994 59.6904C484.876 63.1134 484.78 66.6337 484.539 70.0322L484.515 70.3809H476.335C472.563 70.3809 467.856 70.3327 463.33 70.2852C458.803 70.2376 454.458 70.1904 451.405 70.1904H445.865C444.77 70.1904 443.556 70.2152 442.277 70.2402C441.005 70.2651 439.67 70.2889 438.331 70.2891L438.332 70.29C436.033 70.3904 433.634 70.3906 431.726 70.3906H431.351V69.5078L431.664 69.4551L435.104 68.8857L435.135 68.8809H435.231C437.326 68.5562 438.722 67.9131 439.604 66.8906C440.488 65.8647 440.91 64.3914 440.91 62.2852V9.5459C440.91 7.43827 440.51 5.87116 439.625 4.79883C438.748 3.73682 437.336 3.09073 435.154 2.94922L432.345 2.79102C430.386 2.89131 428.93 3.09975 427.744 3.85449C426.567 4.6038 425.599 5.93227 424.733 8.41699C421.628 18.9734 418.475 29.0303 415.323 39.1064C412.171 49.1852 409.019 59.2848 405.915 69.9307L405.837 70.2002H404.336L383.998 16.4482L367.595 71.752L367.515 72.0205H365.922L365.832 71.7725L343.197 8.92578C342.122 6.43838 340.922 4.93946 339.391 4.02734C337.848 3.10903 335.918 2.75448 333.312 2.66016L332.95 2.64746V1.34082H333.325C334.051 1.34082 335.084 1.36568 336.12 1.39062C337.16 1.41566 338.205 1.44042 338.965 1.44043H338.98C341.361 1.54004 343.834 1.54004 345.745 1.54004C347.947 1.54004 351.57 1.54013 354.332 1.44043H354.345L356.299 1.4248C356.954 1.41545 357.611 1.40313 358.256 1.39062C359.544 1.36565 360.791 1.34082 361.896 1.34082H362.271V2.55176L361.914 2.57031L358.094 2.75977H358.091C355.901 2.85246 354.623 3.50113 354.001 4.51758C353.369 5.5508 353.335 7.09091 353.944 9.15625L369.907 57.9648L386.956 0.458984L387.035 0.19043H389.485L389.576 0.433594Z" fill="var(--fill-0, white)"/>
<path d="M805.11 20.335C805.11 9.66456 814.789 -0.0220258 829.592 1.04102L829.591 1.04199C836.248 1.47671 841.385 3.91696 844.087 7.56934C846.807 11.2468 847.001 16.0727 843.925 21.1006C843.151 22.3595 842.508 23.1605 841.956 23.6494C841.4 24.1421 840.91 24.3398 840.455 24.3398C839.91 24.3398 839.624 24.0445 839.43 23.8506C838.821 23.3335 838.489 22.4736 838.423 21.6797C838.358 20.8895 838.546 19.9976 839.19 19.5479L839.196 19.5439C839.537 19.3161 839.956 19.1703 840.372 19.0693C840.791 18.9676 841.233 18.905 841.63 18.8564C842.038 18.8066 842.381 18.7731 842.646 18.7275C842.766 18.7069 842.851 18.685 842.907 18.666C843.88 15.9452 844.026 13.6059 843.57 11.6309C843.11 9.63327 842.03 7.98063 840.523 6.66504C837.499 4.02424 832.755 2.74598 827.942 2.83984H827.938C818.668 2.9352 813.31 8.0039 812.95 13.8711V14.4854C812.95 18.3828 815.121 21.4394 818.482 24.1602C821.852 26.887 826.351 29.2235 830.904 31.6982C835.437 34.1621 840.017 36.7599 843.46 39.9941C846.914 43.2385 849.25 47.1477 849.25 52.2256C849.25 62.6341 839.443 70.9449 825.29 71.5195H825.287C817.676 71.7615 810.421 69.6463 806.12 65.5527C803.963 63.4998 802.548 60.946 802.221 57.9521C801.894 54.9609 802.657 51.5674 804.789 47.8389L804.79 47.8379C805.515 46.5801 806.158 45.7566 806.723 45.2432C807.285 44.7315 807.801 44.5002 808.265 44.5C808.548 44.5 808.783 44.6045 808.953 44.7021C809.038 44.751 809.115 44.8032 809.174 44.8428L809.3 44.9229L809.333 44.9414L809.362 44.9648C809.99 45.4789 810.331 46.3538 810.397 47.1602C810.463 47.9504 810.274 48.8432 809.63 49.293C808.927 49.7802 807.959 49.9547 807.221 50.0508C806.821 50.1027 806.527 50.128 806.274 50.165C806.182 50.1786 806.116 50.1926 806.07 50.2041C805.72 50.8251 805.46 51.5355 805.176 52.2793C804.057 55.1884 804.087 57.7436 804.922 59.9307C805.759 62.124 807.418 63.9846 809.617 65.4697C814.023 68.4452 820.528 69.8669 826.579 69.4414L826.582 69.4404C831.064 69.1587 834.61 67.9111 837.052 65.8984C839.484 63.8931 840.848 61.1063 840.94 57.6748C841.054 53.2172 838.954 49.9512 835.675 47.2236C832.379 44.4824 827.931 42.3174 823.409 40.0654C818.909 37.8245 814.34 35.4995 810.9 32.4453C807.446 29.3775 805.11 25.5551 805.11 20.335Z" fill="var(--fill-0, white)"/>
<path d="M766.805 0.179688C771.188 0.179699 775.879 0.806749 780.126 1.96289C784.367 3.11763 788.195 4.80866 790.831 6.9541L790.97 7.06641V7.24512C790.97 9.01947 790.897 13.2742 790.824 17.5215C790.752 21.7734 790.68 26.0192 790.68 27.7852V28.1602H789.403L789.362 27.8301C788.602 21.6579 786.706 15.3449 783.337 10.4912C779.975 5.64843 775.153 2.26115 768.504 1.88867H768.501C760.915 1.41852 754.532 5.13378 750.028 11.3691C745.52 17.611 742.909 26.3679 742.909 35.9043C742.909 45.439 745.52 53.8148 749.814 59.7959C754.107 65.7744 760.07 69.3495 766.805 69.3496C771.654 69.3496 777.607 68.5216 782.859 67.0488V46.6943C782.859 45.1485 782.622 44.2122 782.184 43.5762C781.751 42.9494 781.082 42.5547 780.068 42.1855C772.843 40.8266 766.508 37.1736 762.785 34.9775C760.808 33.8222 759.958 32.853 759.713 32.042C759.453 31.1813 759.896 30.6135 760.13 30.3799L760.132 30.377C760.692 29.8289 761.561 29.5099 762.404 29.5098C763.184 29.5098 764.043 29.6982 764.444 30.3584L764.521 30.4932C764.891 31.18 765 32.0524 765.055 32.7334C765.086 33.1225 765.098 33.4213 765.123 33.6738C765.133 33.7708 765.145 33.8433 765.155 33.8945C772.729 38.6184 778.484 40.6796 787.255 40.6797C791.55 40.6797 794.314 40.5903 799.287 40.4902L799.67 40.4824V41.6748L799.343 41.7168C798.414 41.8363 797.399 41.8946 796.506 41.9893C795.586 42.0867 794.739 42.2264 794.017 42.5059C793.302 42.7825 792.719 43.1921 792.311 43.8291C791.899 44.4705 791.64 45.3796 791.64 46.6943V65.3613L791.438 65.4668C785.545 68.5597 774.974 70.9599 766.805 70.96C747.017 70.9598 731.85 55.7906 731.85 35.9043C731.85 16.0278 747.008 0.179883 766.805 0.179688Z" fill="var(--fill-0, white)"/>
<path fill-rule="evenodd" clip-rule="evenodd" d="M61.9805 63.5596L62.1563 63.9609C63.0446 65.9155 64.0723 67.0535 65.2793 67.749C66.574 68.495 68.1194 68.7585 70.0391 68.9082C72.4004 68.7973 74.3222 68.5652 75.6621 67.6699C76.9619 66.8015 77.7898 65.2497 77.7901 62.2764L77.6904 35.8164V9.54492C77.6904 7.4242 77.3577 5.88461 76.5098 4.82812C75.6713 3.78361 74.264 3.13518 71.9248 2.94922L68.1397 2.74023V1.44043H68.5147C69.4244 1.44043 70.624 1.46527 71.8174 1.49023C73.0138 1.51526 74.2053 1.54004 75.1055 1.54004H75.1172L77.1133 1.5918C79.0933 1.62967 81.0047 1.62988 82.6553 1.62988C84.5674 1.62988 87.8999 1.62971 90.2813 1.54004H90.2949C91.3901 1.54004 92.5315 1.51525 93.6533 1.49023C94.7732 1.46527 95.8749 1.44043 96.8848 1.44043H97.2598V2.74023L96.9053 2.75977L93.3819 2.94824C90.8445 3.13519 89.4746 3.7857 88.711 4.81348C87.9311 5.86316 87.71 7.39633 87.71 9.54492V68.8799H105.749C108.345 68.7814 111.467 67.8299 114.251 64.7617C117.213 61.4974 119.823 55.8039 120.963 46.1016L121.002 45.7695H122.323L122.277 46.1855C121.99 48.8409 121.8 59.0362 121.8 70.125V70.501L88.2735 70.4004H88.2617L82.7236 70.21C81.6311 70.2101 80.4192 70.2348 79.1436 70.2598C77.8702 70.2847 76.535 70.3084 75.2012 70.3086L75.2022 70.3096C74.4607 70.3441 73.7199 70.3618 72.9805 70.373V70.4102H41.75V69.1426L42.0694 69.0938C42.7343 68.9933 43.6433 68.9493 44.5996 68.8838C45.5694 68.8174 46.61 68.7287 47.583 68.542C48.5598 68.3546 49.4386 68.0733 50.0996 67.6406C50.7264 67.2304 51.1495 66.6895 51.2891 65.9482C46.2126 49.2587 32.3902 42.7153 21.544 40.8398L18.8789 48.4688C18.5666 49.3828 18.0933 50.6362 17.5625 52.0508C17.03 53.4698 16.4372 55.0565 15.8838 56.6455C15.3302 58.2351 14.8183 59.8221 14.4444 61.2402C14.0685 62.6656 13.8399 63.8936 13.8399 64.7754C13.84 65.9122 14.2492 66.6985 14.8975 67.2676C15.5611 67.8502 16.5004 68.2262 17.584 68.4707C18.6637 68.7143 19.8511 68.8197 20.9844 68.8877C22.1021 68.9548 23.1924 68.9864 24.0186 69.083L24.3496 69.1211V70.4004H1.46627e-05V69.1299L0.32228 69.084C1.0786 68.9759 1.79413 68.8876 2.46779 68.8037C3.14299 68.7197 3.77519 68.6404 4.37111 68.5498C5.5645 68.3684 6.59089 68.1446 7.49123 67.7637C9.25546 67.0171 10.6052 65.6363 11.6807 62.5518L11.6817 62.5498L19.458 40.5322C16.4685 40.1281 13.7514 40.1306 11.6924 40.3008C11.6618 40.3439 11.6227 40.4097 11.5733 40.5039C11.4569 40.7257 11.3359 41 11.1641 41.3496C10.8407 42.0077 10.379 42.8442 9.68458 43.3818C9.37571 43.6219 8.98378 43.6954 8.60451 43.6777C8.22205 43.6599 7.81729 43.5482 7.43849 43.3779C6.69537 43.0438 5.95509 42.4368 5.66603 41.6934L5.62208 41.5723C5.51301 41.2491 5.39888 40.6546 5.88966 40.041C6.37923 39.4291 7.42123 38.8718 9.45412 38.4893L9.87404 38.415C11.4241 38.1218 13.2639 37.9297 15.0947 37.9297C16.7478 37.9297 18.4893 38.1028 20.2891 38.2822L33.7617 0.25L33.8496 0H35.7061L61.9805 63.5596ZM22.2813 38.5811C31.4797 40.1827 41.7002 44.9254 47.793 54.4033C46.7113 51.7955 45.6748 49.4407 45.2256 48.2803L31.169 12.6396L22.2813 38.5811Z" fill="var(--fill-0, white)"/>
<path d="M125.735 1.44043C126.645 1.44044 127.845 1.46527 129.038 1.49023C130.234 1.51526 131.425 1.54004 132.325 1.54004H132.338C135.01 1.62978 137.674 1.63086 139.875 1.63086C141.787 1.63086 145.12 1.63068 147.501 1.54102L147.516 1.54004C148.611 1.54003 149.751 1.51524 150.873 1.49023C151.993 1.46526 153.096 1.44043 154.105 1.44043H154.48V2.74121L154.126 2.75977L150.596 2.9502L150.595 2.94922C148.062 3.1369 146.695 3.78764 145.932 4.81445C145.152 5.86415 144.931 7.3974 144.931 9.5459V68.8809H162.359L162.37 68.8701H162.525C165.207 68.87 168.54 67.9953 171.491 64.7422C174.453 61.4779 177.063 55.7841 178.203 46.082L178.242 45.75H179.563L179.519 46.166C179.231 48.8219 179.04 59.0171 179.04 70.1055V70.4814L145.515 70.3809H145.503L139.965 70.1904C138.872 70.1906 137.66 70.2153 136.384 70.2402C135.11 70.2651 133.774 70.2889 132.44 70.2891L132.441 70.29C130.142 70.3904 127.744 70.3906 125.835 70.3906H125.46V68.9834L125.822 68.9707C127.186 68.9231 128.445 68.8759 129.574 68.7295C130.704 68.5831 131.678 68.3406 132.475 67.917C133.263 67.4979 133.888 66.8965 134.321 66.0107C134.758 65.1173 135.011 63.9128 135.011 62.2764L134.91 35.8164V9.5459C134.91 7.42553 134.578 5.88558 133.73 4.8291C132.893 3.78572 131.488 3.13615 129.154 2.94922L125.36 2.74023V1.44043H125.735Z" fill="var(--fill-0, white)"/>
<path d="M212.019 1.44531L215.528 1.51367C216.088 1.52302 216.612 1.52929 217.064 1.5293H217.077C219.75 1.61904 222.414 1.62012 224.614 1.62012H224.989V1.62891C226.939 1.62857 230.008 1.62409 232.24 1.54004L232.255 1.53906C233.35 1.53906 234.491 1.51524 235.612 1.49023C236.732 1.46526 237.835 1.43946 238.845 1.43945H239.22V2.74023L238.865 2.75879L235.335 2.94922L235.334 2.94824C232.802 3.13595 231.434 3.78675 230.671 4.81348C229.891 5.86312 229.67 7.39644 229.67 9.54492V62.2744C229.67 64.4695 229.892 66.0007 230.67 67.0381C231.431 68.0529 232.798 68.6821 235.334 68.8701L238.865 69.0605L239.22 69.0791V70.3799H238.845C237.84 70.3799 236.737 70.3551 235.616 70.3301C234.493 70.3051 233.35 70.2793 232.255 70.2793H232.239C229.859 70.1797 226.527 70.1797 224.614 70.1797C222.414 70.1797 219.741 70.1796 217.079 70.2793L217.064 70.2803C216.164 70.2803 214.974 70.3051 213.777 70.3301C212.584 70.355 211.384 70.3799 210.475 70.3799H210.1V69.0801L213.894 68.8701C216.227 68.683 217.631 68.0578 218.468 67.0273C219.315 65.9845 219.649 64.4467 219.649 62.2744V9.53516C219.649 7.41466 219.318 5.8748 218.47 4.81836C217.632 3.77514 216.228 3.12534 213.894 2.93848L210.1 2.72949V1.42969H210.475C210.93 1.42969 211.457 1.43591 212.019 1.44531Z" fill="var(--fill-0, white)"/>
<path fill-rule="evenodd" clip-rule="evenodd" d="M521.345 1.41016C541.698 1.41016 557.26 16.3744 557.26 35.8955C557.26 55.3753 543.368 70.3799 525.265 70.3799C522.975 70.3799 520.389 70.3805 517.422 70.2803C515.943 70.2801 514.536 70.2554 513.228 70.2305C511.914 70.2054 510.7 70.1797 509.605 70.1797H504.064C502.969 70.1797 501.73 70.2054 500.439 70.2305C499.155 70.2554 497.82 70.2791 496.53 70.2793C494.231 70.3797 491.833 70.3799 489.925 70.3799H489.55V69.0801L493.336 68.8711L493.771 68.8311C495.895 68.6027 497.178 67.9725 497.952 66.9971C498.789 65.9433 499.1 64.4054 499.1 62.2754V9.53516C499.1 7.4362 498.656 5.89109 497.747 4.82715C496.843 3.76929 495.425 3.12394 493.338 2.93848L489.55 2.73047V1.42969H489.925C490.74 1.42969 491.939 1.45551 493.156 1.48047C494.376 1.50549 495.614 1.53027 496.515 1.53027H496.528L497.5 1.55957C499.782 1.61969 502.139 1.62012 504.064 1.62012H509.605C511.047 1.62012 513.617 1.61969 515.416 1.53027H515.435C516.524 1.53027 517.546 1.50547 518.524 1.48047C519.288 1.46098 520.027 1.44516 520.75 1.4375L520.737 1.41016H521.345ZM521.365 3.03027C520.466 3.03028 519.541 3.05504 518.561 3.08008C517.587 3.10495 516.56 3.12866 515.461 3.12891C513.397 3.22267 510.76 3.22909 508.939 3.22949V68.583C509.827 68.5885 511.264 68.6083 512.759 68.6299C514.491 68.6549 516.303 68.6797 517.444 68.6797H517.457C520.41 68.7794 522.984 68.7803 525.274 68.7803C531.523 68.7803 537.057 65.2409 541.043 59.3438C545.03 53.4451 547.45 45.2091 547.45 35.9053C547.45 17.2982 535.983 3.03057 521.365 3.03027Z" fill="var(--fill-0, white)"/>
<path fill-rule="evenodd" clip-rule="evenodd" d="M591.855 1.41016C612.207 1.41016 627.77 16.3744 627.77 35.8955C627.769 55.3753 613.877 70.3799 595.774 70.3799C593.485 70.3799 590.898 70.3805 587.932 70.2803C586.453 70.2801 585.046 70.2554 583.737 70.2305C582.423 70.2054 581.21 70.1797 580.114 70.1797H574.574C573.479 70.1797 572.24 70.2054 570.949 70.2305C569.665 70.2554 568.329 70.2791 567.04 70.2793C564.741 70.3797 562.343 70.3799 560.435 70.3799H560.06V69.0801L563.846 68.8711L564.281 68.8311C566.405 68.6027 567.688 67.9724 568.462 66.9971C569.298 65.9433 569.609 64.4054 569.609 62.2754V9.53516C569.609 7.4362 569.166 5.89109 568.257 4.82715C567.353 3.76932 565.935 3.12394 563.848 2.93848L560.06 2.73047V1.42969H560.435C561.249 1.42969 562.449 1.45551 563.666 1.48047C564.886 1.50549 566.124 1.53026 567.024 1.53027H567.038L568.01 1.55957C570.292 1.61969 572.648 1.62012 574.574 1.62012H580.114C581.557 1.62012 584.127 1.61969 585.926 1.53027H585.944C587.034 1.53027 588.055 1.50547 589.034 1.48047C589.798 1.46096 590.538 1.44514 591.262 1.4375L591.249 1.41016H591.855ZM591.875 3.03027C590.976 3.03028 590.05 3.05504 589.07 3.08008C588.097 3.10495 587.07 3.12866 585.971 3.12891C583.907 3.22266 581.269 3.22909 579.449 3.22949V68.583C580.337 68.5885 581.774 68.6083 583.269 68.6299C585.001 68.6549 586.813 68.6797 587.955 68.6797H587.967C590.919 68.7794 593.494 68.7803 595.784 68.7803C602.033 68.7803 607.567 65.2409 611.553 59.3438C615.54 53.4451 617.96 45.2091 617.96 35.9053C617.96 17.2982 606.492 3.03055 591.875 3.03027Z" fill="var(--fill-0, white)"/>
<path d="M632.959 1.44531L636.469 1.51367C637.029 1.52302 637.552 1.5293 638.005 1.5293H638.018C640.69 1.61905 643.354 1.62012 645.555 1.62012H645.93V1.62891C647.88 1.62857 650.948 1.6241 653.181 1.54004L653.195 1.53906C654.29 1.53906 655.431 1.51524 656.553 1.49023C657.673 1.46526 658.775 1.43945 659.785 1.43945H660.16V2.74023L659.806 2.75879L656.275 2.94922L656.274 2.94824C653.742 3.1359 652.374 3.78681 651.611 4.81348C650.831 5.86313 650.61 7.39645 650.61 9.54492V62.2744C650.61 64.4697 650.832 66.0007 651.61 67.0381C652.372 68.053 653.738 68.6822 656.274 68.8701L659.806 69.0605L660.16 69.0791V70.3799H659.785C658.78 70.3799 657.678 70.3551 656.557 70.3301C655.434 70.3051 654.29 70.2793 653.195 70.2793H653.18C650.799 70.1797 647.467 70.1797 645.555 70.1797C643.354 70.1797 640.68 70.1796 638.019 70.2793L638.005 70.2803C637.105 70.2803 635.914 70.305 634.718 70.3301C633.524 70.355 632.325 70.3799 631.415 70.3799H631.04V69.0801L634.834 68.8701C637.167 68.683 638.571 68.0578 639.408 67.0273C640.255 65.9845 640.59 64.4466 640.59 62.2744V9.53516C640.59 7.41466 640.258 5.8748 639.41 4.81836C638.573 3.77503 637.168 3.12535 634.834 2.93848L631.04 2.72949V1.42969H631.415C631.87 1.42969 632.397 1.43591 632.959 1.44531Z" fill="var(--fill-0, white)"/>
</g>
</g>
</svg>
